<?xml version="1.0" standalone="no"?>
<!DOCTYPE svg PUBLIC "-//W3C//DTD SVG 20010904//EN"
 "http://www.w3.org/TR/2001/REC-SVG-20010904/DTD/svg10.dtd">
<svg version="1.0" xmlns="http://www.w3.org/2000/svg"
 width="85.000000pt" height="85.000000pt" viewBox="0 0 85.000000 85.000000"
 preserveAspectRatio="xMidYMid meet">
<metadata>
Created by potrace 1.14, written by Peter Selinger 2001-2017
</metadata>
<g transform="translate(0.000000,85.000000) scale(0.100000,-0.100000)"
fill="#000000" stroke="none">
<path d="M344 695 c-21 -13 -32 -25 -26 -29 13 -8 92 16 92 28 0 4 6 4 13 -1
6 -5 19 -9 27 -8 8 1 31 -7 52 -17 28 -14 37 -15 41 -4 5 12 -24 37 -53 44
-56 13 -111 8 -146 -13z"/>
<path d="M386 665 c-48 -17 -52 -21 -28 -34 34 -18 21 -45 -24 -48 -32 -3 -46
-11 -75 -45 -20 -22 -41 -38 -46 -35 -13 8 -43 -2 -43 -14 0 -5 7 -9 15 -9 11
0 10 -5 -6 -21 -18 -18 -20 -28 -14 -81 l7 -60 -59 -62 c-32 -33 -69 -73 -81
-87 l-22 -26 405 1 c223 1 405 3 405 5 0 5 -88 111 -104 126 -27 24 -43 61
-35 80 14 38 10 93 -8 105 -12 8 -14 13 -6 16 24 10 2 32 -28 29 -16 -2 -29 0
-29 4 0 5 -13 23 -28 40 -25 29 -34 32 -87 34 -33 1 -63 7 -67 12 -5 6 -8 3
-8 -6 0 -12 10 -16 43 -16 67 1 94 -10 118 -49 33 -53 28 -55 -156 -59 -85 -1
-160 6 -171 18 -9 9 25 66 45 77 11 5 40 11 65 12 25 0 46 5 46 10 0 5 -4 7
-9 4 -5 -3 -11 0 -14 8 -7 18 32 35 58 25 11 -4 27 -8 35 -8 12 -1 12 1 -1 14
-18 18 -42 22 -82 11 -17 -4 -26 -3 -23 2 10 17 61 20 95 6 40 -17 41 -17 41
-4 0 27 -73 42 -124 25z"/>
</g>
</svg>
